<svg width="45" height="48" viewBox="0 0 45 48" fill="none" xmlns="http://www.w3.org/2000/svg">
<path d="M33.0166 31.5328C37.0212 30.9599 41.1827 31.2811 44.0146 34.0152L42.626 35.4537L41.2363 36.8931C39.7702 35.4777 37.2229 34.9711 33.583 35.4918C30.023 36.0011 25.9238 37.4265 21.9688 39.1636C18.0356 40.8911 14.3504 42.8796 11.6406 44.4419C10.2884 45.2216 9.18426 45.8928 8.4209 46.3668C8.03961 46.6035 7.74323 46.7911 7.54395 46.9185C7.4443 46.9822 7.36812 47.0308 7.31836 47.063C7.29368 47.079 7.27547 47.0915 7.26367 47.0992L7.24805 47.1089V47.1099C7.24812 47.1099 7.24815 47.1085 6.15137 45.4361C5.13316 43.8835 5.06042 43.7724 5.05566 43.7642L5.05762 43.7623L5.0791 43.7476C5.0941 43.7378 5.11647 43.7238 5.14453 43.7056C5.20069 43.6692 5.28252 43.6163 5.38867 43.5484C5.60187 43.4121 5.91406 43.2151 6.31152 42.9683C7.10619 42.4749 8.24755 41.7814 9.64258 40.9771C12.4283 39.371 16.25 37.3079 20.3604 35.5025C24.4491 33.7066 28.932 32.1172 33.0166 31.5328ZM31.6787 0.00346886C32.2645 -0.0251004 32.7921 0.122812 33.2617 0.446828C33.7567 0.742957 34.1549 1.23038 34.4551 1.90972C34.754 2.56256 34.9287 3.40905 34.9795 4.4478C35.0524 5.9393 34.9202 7.61464 34.584 9.4732C34.273 11.3038 33.7782 13.1966 33.0996 15.1519C32.4197 17.0807 31.5907 18.9504 30.6113 20.7603C29.6306 22.5437 28.5222 24.1735 27.2861 25.649C26.0488 27.0978 24.6907 28.2715 23.2129 29.1714C21.7605 30.0434 20.2223 30.5197 18.5977 30.5992C18.3313 30.6122 18.0763 30.5977 17.834 30.5562C17.5931 30.5413 17.3516 30.5128 17.1094 30.4712C17.2008 29.6126 17.275 28.6748 17.332 27.6578C17.3891 26.6404 17.4325 25.623 17.4629 24.607C17.5186 23.5632 17.5656 22.6 17.6025 21.7173L17.4424 21.7251C16.4883 23.5071 15.3517 25.1116 14.0332 26.5376C12.7147 27.9636 11.3018 29.1009 9.79492 29.9488C8.28666 30.77 6.77298 31.2173 5.25488 31.2916C4.96202 31.3059 4.68096 31.2927 4.41211 31.2525C4.14465 31.2389 3.90241 31.1979 3.68555 31.1285C3.74837 29.6838 3.79584 28.1996 3.82812 26.6763C3.85911 25.1264 3.86505 23.6174 3.84668 22.15C3.85494 20.6811 3.83076 19.36 3.77344 18.188C3.66532 15.9776 3.48169 14.1447 3.22363 12.689C2.9909 11.2055 2.70636 10.0177 2.36914 9.12652C2.03062 8.20877 1.66157 7.49252 1.2627 6.97808C0.863884 6.46379 0.442933 6.04368 0 5.71831C0.376074 5.21935 0.914332 4.76504 1.61523 4.35698C2.31605 3.94902 3.03948 3.72744 3.78516 3.69097C4.744 3.64408 5.57565 3.99019 6.2793 4.73003C7.00813 5.44192 7.58378 6.5752 8.00684 8.12945C8.45528 9.65603 8.73888 11.6315 8.85742 14.0552C8.91474 15.2271 8.93827 16.534 8.92871 17.9761C8.91915 19.4182 8.87233 20.9158 8.78809 22.4683C8.73047 24.0196 8.64571 25.5458 8.53223 27.0464L8.65137 27.0406C9.92129 26.2576 11.0616 25.2807 12.0723 24.1099C13.1096 22.9378 13.9943 21.6395 14.7256 20.2154C15.4568 18.7914 16.0121 17.3093 16.3906 15.7691C16.7678 14.2022 16.9196 12.6727 16.8467 11.1812C16.7867 9.95621 16.5856 8.84488 16.2432 7.84722C15.8994 6.82283 15.4138 5.89839 14.7861 5.07476C15.0011 4.55704 15.3648 4.08525 15.8779 3.65972C16.4177 3.23286 17.0073 3.0035 17.6465 2.97222C18.6053 2.92532 19.3948 3.23415 20.0146 3.898C20.6598 4.53391 21.164 5.56391 21.5273 6.98784C21.8906 8.41169 22.1282 10.2688 22.2402 12.5591C22.3002 13.7843 22.3044 15.2265 22.252 16.8843C22.1982 18.5155 22.119 20.1748 22.0146 21.8619C21.909 23.5223 21.783 25.0505 21.6377 26.4459L21.7578 26.44C22.7225 25.9656 23.6485 25.2391 24.5352 24.2613C25.4216 23.2836 26.2199 22.1368 26.9297 20.8209C27.6661 19.5034 28.2786 18.1115 28.7676 16.646C29.2819 15.1525 29.6632 13.6647 29.9111 12.1841C30.1844 10.6758 30.2881 9.24257 30.2217 7.88433C30.1657 6.73917 29.9818 5.70676 29.6699 4.78765C29.3567 3.84182 28.9168 3.04856 28.3516 2.40874C28.5574 1.70464 28.9837 1.13669 29.6299 0.704641C30.2762 0.272551 30.9596 0.0386416 31.6787 0.00346886Z" fill="url(#paint0_linear_12_1116)"/>
<defs>
<linearGradient id="paint0_linear_12_1116" x1="5.85704" y1="22.007" x2="42.1936" y2="48.5529" gradientUnits="userSpaceOnUse">
<stop stop-color="#D7D0AB"/>
<stop offset="1" stop-color="#716D5A"/>
</linearGradient>
</defs>
</svg>
