<svg width="300" height="70" viewBox="0 0 300 70" fill="none" xmlns="http://www.w3.org/2000/svg">
<path d="M130.453 44.7039C161.002 40.9479 193.074 38.6202 220.433 40.1297C234.112 40.8844 246.676 42.6013 257.312 45.6082C267.927 48.6095 276.775 52.939 282.861 59.0252L280.033 61.8533C274.619 56.4395 266.499 52.3618 256.224 49.4568C245.969 46.5575 233.72 44.8691 220.212 44.1238C193.196 42.6333 161.392 44.9296 130.941 48.6736C100.505 52.4157 71.4937 57.5945 50.0859 61.8386C39.384 63.9603 30.5861 65.8473 24.4658 67.2039C21.4058 67.8821 19.0149 68.4278 17.3906 68.8035C16.5787 68.9913 15.9579 69.1369 15.541 69.2351C15.3328 69.2842 15.1754 69.3215 15.0703 69.3464C15.0178 69.3589 14.9783 69.3685 14.9521 69.3748C14.9391 69.3779 14.9293 69.3801 14.9229 69.3816C14.9198 69.3823 14.9176 69.3832 14.916 69.3836C14.9146 69.3839 14.9113 69.3742 14.4473 67.4392C13.9962 65.5582 13.9821 65.4954 13.9834 65.4929C13.9852 65.4925 13.9887 65.4928 13.9922 65.492C13.9992 65.4903 14.0099 65.4874 14.0234 65.4841C14.0508 65.4776 14.0912 65.4675 14.1445 65.4548C14.2522 65.4292 14.4129 65.3913 14.624 65.3416C15.0462 65.2421 15.6726 65.0951 16.4902 64.906C18.1257 64.5278 20.5282 63.9796 23.6006 63.2986C29.7459 61.9365 38.5734 60.0431 49.3086 57.9148C70.7758 53.6589 99.8892 48.4617 130.453 44.7039ZM30.5391 17.7839C31.1147 17.6721 31.658 17.7433 32.1689 17.9968C32.7012 18.2193 33.1644 18.6455 33.5586 19.2752C33.9477 19.8786 34.2418 20.6908 34.4404 21.7117C34.7256 23.1775 34.8341 24.8544 34.7666 26.742C34.7202 28.5982 34.5009 30.5427 34.1084 32.575C33.7108 34.5811 33.1563 36.55 32.4453 38.4812C31.7293 40.3861 30.8652 42.157 29.8525 43.7937C28.8347 45.4043 27.6584 46.7604 26.3242 47.8621C25.0112 48.9324 23.5566 49.6237 21.96 49.9343C21.6982 49.9853 21.444 50.0073 21.1982 50.0007C20.9576 50.0204 20.7145 50.0268 20.4688 50.0203C20.4367 49.1572 20.3759 48.2179 20.2871 47.2029C20.1983 46.188 20.0964 45.1756 19.9814 44.1658C19.8876 43.1246 19.7965 42.164 19.707 41.2849L19.5498 41.3152C18.8599 43.2152 17.9638 44.9654 16.8623 46.5652C15.7609 48.1649 14.5248 49.4922 13.1543 50.5466C11.7789 51.5747 10.3453 52.2339 8.85352 52.5242C8.56571 52.5802 8.2855 52.6076 8.01367 52.6062C7.74697 52.6309 7.50095 52.6244 7.27637 52.5867C7.1323 51.1478 6.96677 49.6722 6.78125 48.1599C6.59062 46.6213 6.382 45.1264 6.1543 43.6765C5.95278 42.2217 5.73965 40.918 5.51562 39.7664C5.09304 37.594 4.64976 35.806 4.18652 34.4021C3.74432 32.9668 3.29309 31.8318 2.83203 30.9978C2.36591 30.1377 1.89893 29.4813 1.43066 29.0291C0.962361 28.5768 0.485011 28.2215 0 27.9627C0.300986 27.4151 0.769808 26.8895 1.40527 26.3855C2.04068 25.8817 2.72516 25.5583 3.45801 25.4158C4.40018 25.2326 5.27228 25.4569 6.07422 26.0886C6.89733 26.6892 7.62885 27.7287 8.26953 29.2068C8.93132 30.6537 9.49464 32.5679 9.95801 34.95C10.1821 36.1017 10.3924 37.3923 10.5889 38.8211C10.7853 40.2497 10.9526 41.7383 11.0908 43.2869C11.2553 44.8305 11.3883 46.3537 11.4902 47.8552L11.6074 47.8318C12.7525 46.8756 13.742 45.7461 14.5752 44.4431C15.4346 43.135 16.125 41.7236 16.6455 40.2097C17.166 38.6959 17.5035 37.1496 17.6582 35.5711C17.8078 33.9665 17.7401 32.4313 17.4551 30.9656C17.2209 29.7615 16.8623 28.6894 16.3809 27.7507C15.8944 26.786 15.2817 25.9411 14.543 25.2156C14.6818 24.6725 14.9749 24.1534 15.4219 23.6589C15.8951 23.1595 16.4461 22.8486 17.0742 22.7263C18.0166 22.543 18.8425 22.7359 19.5508 23.3045C20.2799 23.8418 20.9265 24.789 21.4893 26.1463C22.0521 27.5037 22.5524 29.3083 22.9902 31.5593C23.2244 32.7633 23.4334 34.1895 23.6182 35.8377C23.7979 37.4599 23.9572 39.1139 24.0947 40.7986C24.2272 42.4568 24.3206 43.9868 24.376 45.3884L24.4941 45.366C25.3812 44.7588 26.1937 43.9076 26.9316 42.8132C27.6695 41.719 28.2959 40.4701 28.8105 39.0662C29.3514 37.657 29.7594 36.192 30.0342 34.6716C30.33 33.1199 30.4943 31.5933 30.5283 30.0925C30.5835 28.5605 30.4814 27.1267 30.2217 25.7918C30.0027 24.6664 29.6733 23.6706 29.2334 22.8054C28.7884 21.9144 28.2404 21.1928 27.5898 20.6404C27.693 19.914 28.0333 19.2902 28.6113 18.7703C29.1894 18.2503 29.8323 17.9214 30.5391 17.7839ZM46.8955 23.3201C47.9459 23.1353 48.9302 23.1114 49.8477 23.2478C50.7604 23.358 51.5265 23.7114 52.1455 24.3064C52.7907 24.8969 53.217 25.7829 53.4248 26.9646C53.6789 28.4091 53.4629 29.7196 52.7764 30.8963C52.1161 32.0682 51.0864 33.0619 49.6865 33.8767C48.2819 34.6653 46.6098 35.244 44.6709 35.6121C44.3604 35.6938 44.0082 35.7693 43.6143 35.8386C43.2158 35.8817 42.8696 35.9147 42.5762 35.9392C42.6192 36.3378 42.662 36.7369 42.7051 37.1355C42.7435 37.5076 42.7881 37.838 42.8389 38.1267C43.0791 39.4923 43.5156 40.5124 44.1484 41.1863C44.803 41.8293 45.8003 42.0332 47.1396 41.7976C48.2425 41.6036 49.2074 41.1631 50.0342 40.4763C50.8872 39.7848 51.483 38.9354 51.8203 37.9285C52.2064 37.9689 52.4952 38.1483 52.6865 38.4666C52.8732 38.7586 52.9966 39.0754 53.0566 39.4168C53.209 40.2833 53.0373 41.1528 52.541 42.0252C52.0709 42.893 51.3256 43.6602 50.3057 44.3269C49.2858 44.9937 48.0144 45.4613 46.4912 45.7293C44.9679 45.9972 43.5926 45.9552 42.3662 45.6023C41.1354 45.2231 40.103 44.5111 39.2695 43.4666C38.4576 42.391 37.893 40.9466 37.5742 39.1345C37.2832 37.4801 37.2307 35.7971 37.417 34.0857C37.5987 32.348 38.0463 30.739 38.7607 29.2595C39.5014 27.7756 40.5381 26.5102 41.8701 25.4636C43.1977 24.3908 44.8732 23.6758 46.8955 23.3201ZM295.545 18.2918C295.915 18.2787 296.343 18.3268 296.829 18.4363C297.338 18.5585 297.805 18.7337 298.228 18.9607C298.909 19.3265 299.425 19.8602 299.774 20.5623C300.136 21.2409 300.041 22.0676 299.487 23.0418C299.336 23.3237 299.006 23.7974 298.497 24.4627C297.989 25.1278 297.382 25.8914 296.677 26.7537C296.02 27.5571 295.346 28.3647 294.658 29.1775C293.146 31.0574 291.604 32.9651 290.033 34.9002C288.437 36.8581 286.786 38.8627 285.08 40.9129C284.956 41.0881 284.794 41.3037 284.596 41.5603C284.397 41.817 284.236 42.0636 284.109 42.2986C283.908 42.6744 283.831 43.0419 283.88 43.4011C283.942 43.737 284.172 44.0421 284.569 44.3162C284.225 44.6759 283.812 44.9081 283.332 45.0134C282.852 45.1187 282.363 45.1287 281.864 45.0427C281.389 44.9693 280.928 44.8127 280.481 44.573C279.8 44.2072 279.307 43.7157 279.003 43.0984C278.686 42.5046 278.646 41.8467 278.882 41.1257C277.956 41.3851 276.969 41.4764 275.921 41.3982C274.873 41.32 273.833 41.003 272.799 40.448C271.577 39.7921 270.73 38.974 270.258 37.9939C269.798 36.9904 269.651 35.8826 269.817 34.6707C270.007 33.4712 270.456 32.2129 271.162 30.8972C272.108 29.1353 273.238 27.6232 274.551 26.3611C275.888 25.1115 277.311 24.1502 278.822 23.4783C280.346 22.7829 281.889 22.446 283.451 22.4675C285.026 22.4656 286.53 22.8496 287.963 23.6189C288.597 23.9595 289.165 24.3403 289.666 24.7605C290.04 25.0689 290.393 25.399 290.729 25.7488C291.427 24.8771 292.091 24.0053 292.72 23.1316C293.576 21.9874 294.257 20.9454 294.762 20.0056C294.926 19.7002 295.065 19.4114 295.181 19.1404C295.332 18.8585 295.453 18.5754 295.545 18.2918ZM59.1309 12.1668C59.8676 12.0461 60.5866 12.1441 61.2871 12.4617C62.0138 12.775 62.4674 13.4845 62.6484 14.5896C62.6872 14.8264 62.7034 15.2562 62.6973 15.8787C62.6868 16.4749 62.6698 17.1942 62.6455 18.0359C62.6476 18.873 62.6406 19.7386 62.625 20.6326C62.6094 21.5269 62.5856 22.3689 62.5527 23.158C62.426 26.178 62.3182 28.6546 62.2295 30.5877C62.1628 32.49 62.0992 34.0002 62.0391 35.1179C62.0053 36.2311 61.979 37.0597 61.96 37.6033C61.9672 38.1425 61.9752 38.5203 61.9834 38.7351C61.9916 38.9497 62.0083 39.1359 62.0342 39.2937C62.1032 39.7148 62.2665 40.0534 62.5244 40.3084C62.8043 40.5326 63.1858 40.6321 63.668 40.6072C63.614 41.1024 63.428 41.5377 63.1113 41.9138C62.821 42.2855 62.4525 42.5895 62.0049 42.825C61.5571 43.0605 61.0693 43.2212 60.543 43.3074C59.5957 43.4625 58.7891 43.3248 58.124 42.8933C57.4591 42.4619 57.0472 41.7593 56.8877 40.7859C56.8273 40.4175 56.7797 39.9654 56.7461 39.4304C56.7388 38.8912 56.7436 38.2553 56.7588 37.5232C56.7697 36.7649 56.7919 35.9099 56.8252 34.9588C56.8805 33.9771 56.9288 32.8748 56.9717 31.6521C57.0409 30.4248 57.1019 29.0629 57.1543 27.5681C57.233 26.0691 57.3033 24.4361 57.3652 22.6697C57.3827 21.1267 57.3623 19.6841 57.3047 18.3425C57.269 16.9705 57.1762 15.824 57.0254 14.9031C56.9694 14.5611 56.9063 14.2605 56.8369 14.0017C56.7675 13.743 56.6871 13.4994 56.5957 13.2713C56.8813 13.0354 57.2501 12.8124 57.7021 12.6033C58.1543 12.3941 58.6309 12.2487 59.1309 12.1668ZM75.8936 18.5945C77.0262 18.4173 78.0519 18.4183 78.9707 18.5984C79.8855 18.7522 80.6282 19.0949 81.1973 19.6267C81.7926 20.1544 82.1659 20.9059 82.3184 21.8806C82.5121 23.1189 82.2857 24.086 81.6387 24.781C80.9876 25.4495 80.1876 25.8573 79.2393 26.0056C78.9759 26.0468 78.6689 26.0682 78.3184 26.0691C77.9898 26.0395 77.7054 25.9491 77.4658 25.7976C77.5538 25.325 77.6071 24.8039 77.626 24.2341C77.667 23.6339 77.6531 23.1098 77.583 22.6619C77.4923 22.0823 77.2877 21.6419 76.9707 21.3406C76.6537 21.0394 76.2055 20.9345 75.626 21.0252C74.8883 21.1406 74.2579 21.5089 73.7344 22.1306C73.2109 22.7523 72.7796 23.5347 72.4414 24.4783C72.1254 25.3914 71.8898 26.3867 71.7344 27.4636C71.6012 28.5101 71.5337 29.5462 71.5322 30.572C71.5266 31.5714 71.5819 32.4399 71.6973 33.1775C71.8951 34.4421 72.3099 35.4577 72.9424 36.2224C73.5748 36.9871 74.55 37.2664 75.8672 37.0603C77.0263 36.879 77.9758 36.3927 78.7158 35.6023C79.4781 34.7813 79.9593 33.8017 80.1592 32.6638C80.6845 32.7436 81.0811 32.952 81.3496 33.2879C81.618 33.6237 81.7936 34.0549 81.876 34.5818C82.0284 35.5565 81.8113 36.4947 81.2236 37.3963C80.6623 38.2938 79.8235 39.0588 78.708 39.6922C77.623 40.3477 76.3426 40.7914 74.8672 41.0222C72.5227 41.3889 70.6305 41.0236 69.1904 39.9265C67.7724 38.7988 66.853 36.8912 66.4326 34.2039C66.1565 32.4387 66.1407 30.6998 66.3857 28.988C66.6308 27.2766 67.1377 25.6861 67.9062 24.2166C68.7013 22.7426 69.7642 21.51 71.0938 20.5193C72.4232 19.5287 74.0231 18.8871 75.8936 18.5945ZM286.687 25.658C285.982 25.2797 285.221 25.1744 284.405 25.3416C283.625 25.4979 282.81 25.8617 281.958 26.4334C281.142 26.9942 280.322 27.7044 279.498 28.5632C278.697 29.4347 277.936 30.3727 277.215 31.3777C276.517 32.3953 275.891 33.4212 275.336 34.4548C274.819 35.418 274.523 36.3342 274.45 37.2029C274.377 38.0716 274.787 38.746 275.68 39.2254C276.478 39.6542 277.288 39.7255 278.107 39.4392C278.95 39.1655 279.734 38.6931 280.457 38.0222C281.217 37.3404 281.869 36.6613 282.414 35.9851L288.765 28.0447C288.518 27.4889 288.205 27.0023 287.823 26.5857C287.465 26.1816 287.086 25.8724 286.687 25.658ZM94.4551 15.9129C95.8283 15.7213 96.9933 15.7738 97.9502 16.0711C98.9298 16.3383 99.7451 16.7763 100.396 17.3855C101.072 17.991 101.59 18.7133 101.949 19.5515C102.335 20.3861 102.593 21.266 102.722 22.1902C102.98 24.0388 102.992 25.8682 102.76 27.6775C102.524 29.4605 102.026 31.1051 101.267 32.6111C100.507 34.1169 99.4593 35.3808 98.1211 36.4021C96.7791 37.397 95.1173 38.033 93.1367 38.3093C91.7898 38.4972 90.624 38.4448 89.6406 38.1511C88.6611 37.8839 87.833 37.4471 87.1562 36.8416C86.5059 36.2323 85.9872 35.5102 85.6016 34.6755C85.2387 33.8109 84.9932 32.9162 84.8643 31.992C84.6064 30.1432 84.5951 28.3267 84.8311 26.5437C85.067 24.7607 85.565 23.1161 86.3242 21.6101C87.0834 20.1044 88.1338 18.854 89.4756 17.8591C90.814 16.8378 92.4743 16.1891 94.4551 15.9129ZM130.36 11.5877C132.056 11.3937 133.401 11.6558 134.396 12.3738C135.387 13.0655 135.973 14.1935 136.151 15.7566C136.233 16.4719 136.236 17.3169 136.16 18.2918C136.107 19.2372 136.022 20.2537 135.905 21.3406C135.812 22.3981 135.702 23.4442 135.579 24.4783C135.456 25.5123 135.362 26.4494 135.297 27.2888C135.232 28.1281 135.227 28.7866 135.281 29.2634C135.333 29.7136 135.47 30.087 135.691 30.3836C135.91 30.6538 136.289 30.7983 136.828 30.8172C136.728 31.5801 136.352 32.1732 135.703 32.5964C135.08 33.0167 134.371 33.2721 133.576 33.363C132.649 33.4691 131.864 33.2909 131.221 32.8279C130.58 32.3912 130.195 31.6029 130.064 30.4636C129.998 29.8808 129.992 29.1295 130.048 28.2107C130.104 27.2919 130.192 26.3023 130.312 25.242C130.433 24.1815 130.554 23.1343 130.677 22.1004C130.797 21.0398 130.888 20.0757 130.95 19.2097C131.039 18.3409 131.055 17.6544 130.997 17.1511C130.909 16.383 130.64 15.7962 130.191 15.3914C129.742 14.9866 129.147 14.827 128.405 14.9119C127.637 14.9998 126.999 15.2876 126.491 15.7752C126.01 16.2596 125.623 16.8673 125.331 17.5984C125.036 18.3032 124.814 19.0673 124.667 19.8894C124.517 20.6849 124.414 21.4346 124.36 22.1384L123.471 33.7146L118.13 34.8894L119.032 24.4793C119.072 24.1258 119.117 23.691 119.165 23.1755C119.237 22.6306 119.28 22.0749 119.296 21.5095C119.335 20.9147 119.353 20.3626 119.349 19.8533C119.367 19.3143 119.357 18.8725 119.317 18.5281C119.226 17.7336 118.97 17.1323 118.548 16.7244C118.125 16.3165 117.53 16.1561 116.762 16.2439C116.02 16.3288 115.408 16.6139 114.927 17.0984C114.442 17.5564 114.052 18.1378 113.757 18.8425C113.488 19.5442 113.28 20.3067 113.133 21.1287C113.009 21.9211 112.924 22.6961 112.876 23.4529L111.946 35.033L106.645 36.2039L108.315 14.9158L112.703 13.8504L112.604 17.5652C113.165 16.1323 113.98 15.0461 115.05 14.3064C116.116 13.5403 117.378 13.0738 118.835 12.907C120.213 12.7494 121.331 12.9026 122.189 13.3679C123.048 13.8334 123.68 14.661 124.084 15.8494C124.683 14.5193 125.536 13.5224 126.641 12.8591C127.769 12.1664 129.009 11.7423 130.36 11.5877ZM259.049 13.0691L257.711 16.5369C258.74 15.4067 259.911 14.6656 261.225 14.3132C262.564 13.967 263.922 13.953 265.299 14.2722C266.909 14.6457 268.05 15.3346 268.721 16.3386C269.423 17.3227 269.599 18.5684 269.25 20.075C269.087 20.7762 268.82 21.5765 268.447 22.4754C268.075 23.3743 267.651 24.3167 267.176 25.3015C266.707 26.2604 266.241 27.2065 265.778 28.1394C265.316 29.0722 264.913 29.9231 264.57 30.6922C264.228 31.4613 264.002 32.08 263.894 32.5476C263.785 33.0152 263.789 33.4131 263.904 33.741C264.02 34.0689 264.329 34.3316 264.83 34.53C264.48 35.2152 263.928 35.6488 263.174 35.8298C262.446 36.0169 261.692 36.0203 260.913 35.8396C260.004 35.6288 259.324 35.1968 258.873 34.5447C258.416 33.9186 258.317 33.0474 258.576 31.9304C258.709 31.359 258.955 30.6495 259.315 29.8025C259.676 28.9555 260.091 28.0523 260.56 27.0935C261.054 26.1407 261.52 25.1946 261.957 24.2556C262.426 23.2967 262.835 22.4199 263.184 21.6248C263.558 20.8358 263.803 20.1945 263.917 19.7009C264.092 18.9476 264.035 18.3042 263.748 17.7722C263.487 17.2465 263.005 16.9026 262.304 16.74C261.369 16.5232 260.498 16.6772 259.692 17.2019C258.912 17.7327 258.21 18.4589 257.585 19.3816C256.96 20.3043 256.43 21.2356 255.993 22.1746L251.235 32.7742L245.849 32.0994L254.559 12.6033L259.049 13.0691ZM96.2822 19.1716C95.813 18.5101 95.0769 18.2485 94.0732 18.3884C93.3073 18.4953 92.659 18.8692 92.1289 19.5086C91.599 20.1478 91.1757 20.974 90.8594 21.9871C90.5394 22.974 90.315 24.0688 90.1865 25.2713C90.0581 26.4739 90.0146 27.7059 90.0557 28.9656C90.0931 30.1988 90.189 31.3701 90.3438 32.4793C90.4948 33.562 90.8053 34.434 91.2744 35.0955C91.7663 35.7269 92.5141 35.9727 93.5176 35.8328C94.2835 35.7259 94.9318 35.353 95.4619 34.7136C95.9883 34.0479 96.3978 33.2232 96.6914 32.24C97.0078 31.2266 97.2309 30.1184 97.3594 28.9158C97.4878 27.7134 97.5335 26.4956 97.4961 25.2625C97.4851 24.0256 97.4018 22.8521 97.2471 21.7429C97.096 20.6601 96.7741 19.8031 96.2822 19.1716ZM161.544 25.7078C162.395 25.6492 163.104 25.8407 163.669 26.283C164.232 26.6987 164.548 27.3993 164.615 28.3836C164.69 29.4742 164.454 30.5196 163.908 31.5193C163.364 32.5455 162.634 33.3973 161.719 34.075C160.832 34.7775 159.869 35.1647 158.831 35.2361C158.565 35.2544 158.31 35.2455 158.067 35.2088C157.798 35.1738 157.527 35.1257 157.256 35.0642C157.82 34.3304 158.277 33.5902 158.627 32.8445C158.933 32.1919 159.156 31.5346 159.298 30.8728L159.409 30.3064C159.528 29.6492 159.566 29.0181 159.524 28.4129C159.497 28.0139 159.433 27.6572 159.331 27.3435C159.256 27.028 159.141 26.7285 158.988 26.4451C159.241 26.2406 159.618 26.0802 160.118 25.9656C160.616 25.8244 161.092 25.7389 161.544 25.7078ZM47.8535 25.9949C47.4953 25.6517 47.0004 25.5354 46.3701 25.6463C45.6873 25.7664 45.0937 26.0874 44.5898 26.6091C44.1122 27.1264 43.7134 27.7795 43.3916 28.5672C43.0961 29.3501 42.869 30.2156 42.7109 31.1638C42.5791 32.1076 42.5176 33.0666 42.5264 34.0398C43.4191 33.8828 44.267 33.6251 45.0703 33.2673C45.869 32.8832 46.56 32.423 47.1426 31.8875C47.7515 31.3471 48.1961 30.7139 48.4746 29.988C48.7485 29.2359 48.8087 28.426 48.6562 27.5593C48.5053 26.8551 48.2378 26.3334 47.8535 25.9949ZM150.695 9.64528C151.758 9.55447 152.741 9.61738 153.643 9.83473C154.542 10.0255 155.274 10.4449 155.838 11.0925C156.428 11.7379 156.774 12.6587 156.876 13.8543C157.001 15.3156 156.669 16.6015 155.881 17.7127C155.119 18.8215 154.005 19.7196 152.538 20.407C151.069 21.0678 149.352 21.4956 147.389 21.6902C147.072 21.744 146.715 21.788 146.316 21.822C145.916 21.8295 145.568 21.8324 145.273 21.8308C145.281 22.2316 145.288 22.6331 145.296 23.0339C145.301 23.4079 145.316 23.7409 145.341 24.033C145.459 25.4146 145.803 26.4696 146.374 27.197C146.969 27.8955 147.944 28.1868 149.299 28.0711C150.415 27.9757 151.415 27.6223 152.3 27.0115C153.211 26.3984 153.879 25.6056 154.305 24.6326C154.686 24.7071 154.958 24.9109 155.12 25.2449C155.28 25.5523 155.375 25.879 155.404 26.2244C155.479 27.1011 155.231 27.9522 154.659 28.7771C154.114 29.5998 153.303 30.2983 152.229 30.8718C151.153 31.4454 149.845 31.7978 148.304 31.9295C146.763 32.0611 145.397 31.8966 144.207 31.4363C143.015 30.9494 142.05 30.1485 141.312 29.0339C140.599 27.8905 140.163 26.4023 140.007 24.5691C139.864 22.8953 139.961 21.2142 140.299 19.5261C140.634 17.8114 141.223 16.2489 142.066 14.8386C142.936 13.4263 144.08 12.2579 145.5 11.3338C146.917 10.383 148.65 9.82011 150.695 9.64528ZM236.279 10.3191C237.853 9.65899 239.661 9.44062 241.702 9.66285C242.763 9.77831 243.715 10.0289 244.558 10.4158C245.404 10.7761 246.041 11.3289 246.47 12.073C246.925 12.8199 247.087 13.7896 246.957 14.9822C246.798 16.4402 246.226 17.6393 245.238 18.5779C244.277 19.5193 243.011 20.1857 241.439 20.5779C239.871 20.9436 238.103 21.0335 236.139 20.8464C235.818 20.8383 235.458 20.8126 235.061 20.7693C234.666 20.6995 234.325 20.6351 234.036 20.5769C233.966 20.9717 233.896 21.3667 233.826 21.7615C233.759 22.1295 233.71 22.4593 233.679 22.7507C233.529 24.1293 233.663 25.2308 234.083 26.0545C234.532 26.8544 235.433 27.3281 236.785 27.4754C237.898 27.5966 238.948 27.4425 239.934 27.0134C240.946 26.5871 241.755 25.9372 242.359 25.0642C242.719 25.2106 242.946 25.4633 243.041 25.822C243.139 26.1546 243.169 26.494 243.132 26.8386C243.037 27.7133 242.629 28.5006 241.909 29.2C241.216 29.9024 240.285 30.4309 239.12 30.7869C237.955 31.1427 236.604 31.2374 235.066 31.0701C233.529 30.9027 232.22 30.4784 231.141 29.7976C230.064 29.0904 229.272 28.119 228.763 26.8836C228.283 25.6243 228.142 24.0797 228.341 22.2507C228.523 20.5806 228.943 18.9489 229.599 17.3572C230.258 15.7394 231.136 14.3198 232.234 13.0984C233.36 11.8797 234.708 10.9528 236.279 10.3191ZM200.89 0.0319942C201.164 0.290249 201.387 0.616828 201.56 1.01149C201.732 1.40637 201.825 1.81744 201.838 2.24391C201.856 2.83019 201.726 3.39428 201.449 3.93629C201.172 4.47836 200.733 4.94565 200.132 5.33766C199.556 5.70212 198.775 5.90007 197.789 5.93043C196.963 5.95586 196.107 5.88875 195.222 5.72926C194.363 5.56895 193.422 5.31729 192.397 4.97535C192.242 4.92333 192.083 4.86783 191.922 4.81227L190.375 13.6033C190.598 13.6088 190.828 13.6157 191.062 13.6209C191.596 13.6311 192.13 13.6409 192.664 13.6511C193.197 13.6347 193.677 13.6203 194.104 13.6072C194.717 13.5883 195.317 13.5696 195.903 13.5515C196.515 13.506 197.114 13.4481 197.698 13.3767C197.757 13.5614 197.789 13.7202 197.793 13.8533C197.824 13.9856 197.842 14.132 197.847 14.2918C197.874 15.1713 197.562 15.8752 196.911 16.4021C196.26 16.929 195.389 17.2093 194.296 17.2429C193.843 17.2569 193.309 17.2461 192.694 17.2117C192.106 17.1498 191.49 17.0759 190.847 16.989C190.497 16.9393 190.152 16.8794 189.811 16.8123L188.167 26.156C187.987 27.2283 187.721 28.1167 187.369 28.8211C187.017 29.5255 186.54 30.0478 185.937 30.3865C185.333 30.7252 184.565 30.9085 183.632 30.9373C182.992 30.9569 182.403 30.855 181.862 30.6316C181.323 30.4348 180.98 30.1386 180.834 29.7429C181.227 29.5174 181.539 29.241 181.769 28.9138C181.999 28.5866 182.186 28.1673 182.33 27.656C182.501 27.1438 182.655 26.4984 182.791 25.7205L185.647 9.30543C185.85 8.0721 186.23 6.97993 186.787 6.02906C187.335 5.0672 188.057 4.2939 188.952 3.70875L188.87 3.48317C188.222 3.23632 187.644 3.09412 187.136 3.05641C186.627 2.99205 186.066 2.96919 185.453 2.98805C183.934 3.03482 182.75 3.56486 181.9 4.57789C181.077 5.5637 180.679 6.93705 180.706 8.69703C180.703 9.47074 180.794 10.2148 180.976 10.9295C181.157 11.6175 181.445 12.3294 181.841 13.0642C181.528 13.3138 181.16 13.4982 180.737 13.6179C180.341 13.7368 179.983 13.8014 179.663 13.8113C178.757 13.8392 177.99 13.6495 177.364 13.242C176.737 12.8077 176.252 12.2091 175.908 11.4461C175.565 10.683 175.391 9.80792 175.388 8.82106C175.377 7.59415 175.673 6.38365 176.276 5.19117C176.879 3.97234 177.835 2.95622 179.144 2.14235C180.452 1.32837 182.133 0.889148 184.186 0.82594C185.625 0.781624 187.014 0.846127 188.354 1.01832C189.693 1.19052 190.993 1.37658 192.253 1.57789C193.512 1.75251 194.728 1.82198 195.9 1.7859C196.887 1.75554 197.791 1.63464 198.611 1.42262C199.432 1.21056 200.191 0.747046 200.89 0.0319942ZM222.62 24.53C222.583 24.7418 222.529 25.0195 222.458 25.363C222.389 25.6799 222.348 25.9583 222.336 26.198C222.314 26.6241 222.403 26.989 222.602 27.2927C222.828 27.5711 223.166 27.7489 223.616 27.825C223.392 28.5611 222.925 29.085 222.215 29.3963C221.532 29.7088 220.79 29.8447 219.991 29.8045C219.033 29.756 218.274 29.4505 217.715 28.8884C217.183 28.3276 216.942 27.5544 216.991 26.5691C217.009 26.2229 217.057 25.7845 217.137 25.2547C217.245 24.6996 217.367 24.1319 217.503 23.5515C217.64 22.9443 217.776 22.3767 217.909 21.8494C218.044 21.2956 218.147 20.8472 218.218 20.5037L221.259 8.64137L226.681 8.35426L222.62 24.53ZM213.341 7.54957C214.727 7.57087 215.734 7.98613 216.361 8.79567C217.016 9.57905 217.335 10.5706 217.316 11.7703C217.295 13.1834 216.876 14.3904 216.061 15.3914C215.246 16.3657 214.211 16.8432 212.958 16.824C212.611 16.8186 212.252 16.7605 211.881 16.6482C211.51 16.5092 211.232 16.3044 211.05 16.0349C211.404 15.5603 211.707 14.965 211.958 14.2488C212.236 13.5332 212.379 12.8687 212.389 12.2556C212.396 11.7757 212.295 11.3871 212.086 11.0906C211.878 10.7674 211.52 10.6013 211.014 10.5935C210.427 10.5845 209.904 10.7903 209.444 11.2097C209.012 11.6031 208.629 12.1444 208.299 12.8328C207.969 13.4944 207.691 14.2237 207.466 15.0203C207.24 15.8169 207.054 16.6007 206.909 17.3718L204.776 28.6209L199.209 29.0955L203.529 8.19899L208.058 7.70875L207.481 11.3797C208.033 10.2148 208.821 9.28027 209.845 8.57594C210.869 7.87164 212.034 7.52957 213.341 7.54957ZM149.966 11.9158C149.275 11.9749 148.656 12.2416 148.107 12.7166C147.586 13.1893 147.13 13.8035 146.739 14.5593C146.375 15.313 146.073 16.1561 145.831 17.0867C145.616 18.0149 145.47 18.9643 145.393 19.9343C146.296 19.8571 147.163 19.6755 147.995 19.3904C148.825 19.0787 149.554 18.6818 150.182 18.2C150.836 17.7158 151.335 17.1248 151.677 16.4265C152.016 15.7018 152.148 14.9008 152.073 14.0242C151.985 13.3091 151.765 12.7656 151.412 12.3943C151.086 12.0207 150.603 11.8613 149.966 11.9158ZM240.55 11.7498C239.861 11.6747 239.201 11.8178 238.571 12.1785C237.968 12.542 237.403 13.0568 236.874 13.7234C236.372 14.3929 235.913 15.1615 235.497 16.0281C235.107 16.8976 234.781 17.8011 234.518 18.738C235.419 18.8362 236.305 18.8255 237.177 18.7058C238.051 18.5596 238.843 18.3108 239.552 17.9588C240.287 17.6096 240.89 17.1251 241.359 16.5056C241.832 15.8597 242.116 15.0992 242.211 14.2244C242.262 13.5057 242.151 12.9301 241.876 12.4978C241.628 12.0687 241.186 11.8191 240.55 11.7498ZM225.539 0.00660358C226.498 0.0549441 227.273 0.320814 227.862 0.804455C228.452 1.28799 228.724 1.96895 228.68 2.84742C228.634 3.75275 228.267 4.41553 227.579 4.83473C226.917 5.25526 226.106 5.44166 225.147 5.39332C224.215 5.34632 223.44 5.09386 222.822 4.63551C222.233 4.15189 221.961 3.47035 222.005 2.59156C222.051 1.68605 222.418 1.02345 223.106 0.60426C223.796 0.158628 224.607 -0.0403626 225.539 0.00660358Z" fill="url(#paint0_linear_12_1102)"/>
<defs>
<linearGradient id="paint0_linear_12_1102" x1="-2.91309" y1="41.5037" x2="287.087" y2="41.5037" gradientUnits="userSpaceOnUse">
<stop stop-color="#D7D0AB"/>
<stop offset="1" stop-color="#716D5A"/>
</linearGradient>
</defs>
</svg>
